<mxfile host="app.diagrams.net" modified="2021-01-18T14:02:22.597Z" agent="5.0 (Windows NT 10.0; Win64; x64) AppleWebKit/537.36 (KHTML, like Gecko) Chrome/87.0.4280.141 Safari/537.36" etag="EtVoPToKlSEut6_06wHp" version="14.2.4" type="github">
  <diagram id="zq7h7F32NdjRwVXWEW0O" name="Page-1">
    <mxGraphModel dx="2400" dy="1936" grid="1" gridSize="10" guides="1" tooltips="1" connect="1" arrows="1" fold="1" page="1" pageScale="1" pageWidth="850" pageHeight="1100" background="#F1FAEE" math="0" shadow="0">
      <root>
        <mxCell id="0" />
        <mxCell id="1" parent="0" />
        <mxCell id="S3gwO5U7PfDeGXOOmlJb-1" value="&lt;div class=&quot;command&quot; style=&quot;box-sizing: border-box ; margin: 0px ; padding: 0.5em 0.5em 0px ; border: 0px ; font-style: normal ; font-weight: 400 ; font-stretch: inherit ; line-height: inherit ; vertical-align: baseline ; color: rgb(83 , 95 , 97) ; letter-spacing: normal ; text-align: left ; text-indent: 0px ; text-transform: none ; word-spacing: 0px ; background-color: rgb(255 , 255 , 255) ; font-size: 15px&quot;&gt;&lt;font style=&quot;font-size: 15px&quot;&gt;$ nsenter -t 4215 -n iptables -t nat -S&lt;br&gt;&lt;/font&gt;&lt;/div&gt;&lt;div class=&quot;output&quot; style=&quot;box-sizing: border-box ; margin: 0px ; padding: 0px 0.5em 0.5em ; border: 0px ; font-style: italic ; font-weight: 400 ; font-stretch: inherit ; line-height: inherit ; vertical-align: baseline ; color: rgb(83 , 95 , 97) ; float: left ; clear: left ; min-width: 100% ; letter-spacing: normal ; text-align: left ; text-indent: 0px ; text-transform: none ; word-spacing: 0px ; font-size: 15px&quot;&gt;&lt;font style=&quot;font-size: 15px&quot;&gt;&lt;br&gt;&lt;/font&gt;&lt;/div&gt;&lt;div class=&quot;output&quot; style=&quot;box-sizing: border-box ; margin: 0px ; padding: 0px 0.5em 0.5em ; border: 0px ; font-style: italic ; font-weight: 400 ; font-stretch: inherit ; line-height: inherit ; vertical-align: baseline ; color: rgb(83 , 95 , 97) ; float: left ; clear: left ; min-width: 100% ; letter-spacing: normal ; text-align: left ; text-indent: 0px ; text-transform: none ; word-spacing: 0px ; font-size: 15px&quot;&gt;&lt;font style=&quot;font-size: 15px&quot;&gt;-P PREROUTING ACCEPT&lt;br&gt;-P INPUT ACCEPT&lt;br&gt;-P OUTPUT ACCEPT&lt;br&gt;-P POSTROUTING ACCEPT&lt;br&gt;&lt;br&gt;&lt;/font&gt;&lt;/div&gt;&lt;div class=&quot;output&quot; style=&quot;box-sizing: border-box ; margin: 0px ; padding: 0px 0.5em 0.5em ; border: 0px ; font-style: italic ; font-weight: 400 ; font-stretch: inherit ; line-height: inherit ; vertical-align: baseline ; color: rgb(83 , 95 , 97) ; float: left ; clear: left ; min-width: 100% ; letter-spacing: normal ; text-align: left ; text-indent: 0px ; text-transform: none ; word-spacing: 0px ; font-size: 15px&quot;&gt;&lt;font style=&quot;font-size: 15px&quot;&gt;-N ISTIO_INBOUND&lt;br&gt;-N ISTIO_IN_REDIRECT&lt;br&gt;-N ISTIO_OUTPUT&lt;br&gt;-N ISTIO_REDIRECT&lt;br&gt;&lt;br&gt;&lt;/font&gt;&lt;/div&gt;&lt;div class=&quot;output&quot; style=&quot;box-sizing: border-box ; margin: 0px ; padding: 0px 0.5em 0.5em ; border: 0px ; font-style: italic ; font-weight: 400 ; font-stretch: inherit ; line-height: inherit ; vertical-align: baseline ; color: rgb(83 , 95 , 97) ; float: left ; clear: left ; min-width: 100% ; letter-spacing: normal ; text-align: left ; text-indent: 0px ; text-transform: none ; word-spacing: 0px ; font-size: 15px&quot;&gt;&lt;font style=&quot;font-size: 15px&quot;&gt;-A PREROUTING -p tcp -j ISTIO_INBOUND&amp;nbsp;&amp;nbsp;&lt;/font&gt;&lt;/div&gt;&lt;div class=&quot;output&quot; style=&quot;box-sizing: border-box ; margin: 0px ; padding: 0px 0.5em 0.5em ; border: 0px ; font-style: italic ; font-weight: 400 ; font-stretch: inherit ; line-height: inherit ; vertical-align: baseline ; color: rgb(83 , 95 , 97) ; float: left ; clear: left ; min-width: 100% ; letter-spacing: normal ; text-align: left ; text-indent: 0px ; text-transform: none ; word-spacing: 0px ; font-size: 15px&quot;&gt;&lt;font style=&quot;font-size: 15px&quot;&gt;&lt;br&gt;-A OUTPUT -p tcp -j ISTIO_OUTPUT&lt;/font&gt;&lt;/div&gt;&lt;div class=&quot;output&quot; style=&quot;box-sizing: border-box ; margin: 0px ; padding: 0px 0.5em 0.5em ; border: 0px ; font-style: italic ; font-weight: 400 ; font-stretch: inherit ; line-height: inherit ; vertical-align: baseline ; color: rgb(83 , 95 , 97) ; float: left ; clear: left ; min-width: 100% ; letter-spacing: normal ; text-align: left ; text-indent: 0px ; text-transform: none ; word-spacing: 0px ; font-size: 15px&quot;&gt;&lt;font style=&quot;font-size: 15px&quot;&gt;&lt;br&gt;&lt;br&gt;&lt;/font&gt;&lt;/div&gt;&lt;div class=&quot;output&quot; style=&quot;box-sizing: border-box ; margin: 0px ; padding: 0px 0.5em 0.5em ; border: 0px ; font-style: italic ; font-weight: 400 ; font-stretch: inherit ; line-height: inherit ; vertical-align: baseline ; color: rgb(83 , 95 , 97) ; float: left ; clear: left ; min-width: 100% ; letter-spacing: normal ; text-align: left ; text-indent: 0px ; text-transform: none ; word-spacing: 0px ; font-size: 15px&quot;&gt;&lt;font style=&quot;font-size: 15px&quot;&gt;&lt;br&gt;&lt;br&gt;&lt;/font&gt;&lt;/div&gt;&lt;div class=&quot;output&quot; style=&quot;box-sizing: border-box ; margin: 0px ; padding: 0px 0.5em 0.5em ; border: 0px ; font-style: italic ; font-weight: 400 ; font-stretch: inherit ; line-height: inherit ; vertical-align: baseline ; color: rgb(83 , 95 , 97) ; float: left ; clear: left ; min-width: 100% ; letter-spacing: normal ; text-align: left ; text-indent: 0px ; text-transform: none ; word-spacing: 0px ; font-size: 15px&quot;&gt;&lt;font style=&quot;font-size: 15px&quot;&gt;-A ISTIO_OUTPUT ! -d 127.0.0.1/32 -o lo -j ISTIO_REDIRECT&lt;br&gt;-A ISTIO_OUTPUT -m owner --uid-owner 1337 -j RETURN&lt;br&gt;-A ISTIO_OUTPUT -m owner --gid-owner 1337 -j RETURN&lt;br&gt;-A ISTIO_OUTPUT -d 127.0.0.1/32 -j RETURN&lt;br&gt;-A ISTIO_OUTPUT -j ISTIO_REDIRECT&lt;br&gt;&lt;br&gt;&lt;/font&gt;&lt;/div&gt;&lt;div class=&quot;output&quot; style=&quot;box-sizing: border-box ; margin: 0px ; padding: 0px 0.5em 0.5em ; border: 0px ; font-style: italic ; font-weight: 400 ; font-stretch: inherit ; line-height: inherit ; vertical-align: baseline ; color: rgb(83 , 95 , 97) ; float: left ; clear: left ; min-width: 100% ; letter-spacing: normal ; text-align: left ; text-indent: 0px ; text-transform: none ; word-spacing: 0px ; font-size: 15px&quot;&gt;&lt;font style=&quot;font-size: 15px&quot;&gt;-A ISTIO_REDIRECT -p tcp -j REDIRECT --to-ports 15001&lt;/font&gt;&lt;/div&gt;&lt;div class=&quot;output&quot; style=&quot;box-sizing: border-box ; margin: 0px ; padding: 0px 0.5em 0.5em ; border: 0px ; font-style: italic ; font-weight: 400 ; font-stretch: inherit ; line-height: inherit ; vertical-align: baseline ; color: rgb(83 , 95 , 97) ; float: left ; clear: left ; min-width: 100% ; letter-spacing: normal ; text-align: left ; text-indent: 0px ; text-transform: none ; word-spacing: 0px ; font-size: 15px&quot;&gt;&lt;font style=&quot;font-size: 15px&quot;&gt;&lt;br&gt;&lt;/font&gt;&lt;/div&gt;&lt;div class=&quot;output&quot; style=&quot;box-sizing: border-box ; margin: 0px ; padding: 0px 0.5em 0.5em ; border: 0px ; font-style: italic ; font-weight: 400 ; font-stretch: inherit ; line-height: inherit ; vertical-align: baseline ; color: rgb(83 , 95 , 97) ; float: left ; clear: left ; min-width: 100% ; letter-spacing: normal ; text-align: left ; text-indent: 0px ; text-transform: none ; word-spacing: 0px ; font-size: 15px&quot;&gt;&lt;font style=&quot;font-size: 15px&quot;&gt;&lt;br&gt;&lt;/font&gt;&lt;/div&gt;&lt;div class=&quot;output&quot; style=&quot;box-sizing: border-box ; margin: 0px ; padding: 0px 0.5em 0.5em ; border: 0px ; font-style: italic ; font-weight: 400 ; font-stretch: inherit ; line-height: inherit ; vertical-align: baseline ; color: rgb(83 , 95 , 97) ; float: left ; clear: left ; min-width: 100% ; letter-spacing: normal ; text-align: left ; text-indent: 0px ; text-transform: none ; word-spacing: 0px ; font-size: 15px&quot;&gt;&lt;font style=&quot;font-size: 15px&quot;&gt;&lt;br&gt;&lt;/font&gt;&lt;/div&gt;" style="text;whiteSpace=wrap;html=1;fillColor=#A8DADC;strokeColor=#457B9D;fontColor=#1D3557;" vertex="1" parent="1">
          <mxGeometry x="-280" y="-50" width="520" height="720" as="geometry" />
        </mxCell>
        <mxCell id="S3gwO5U7PfDeGXOOmlJb-12" style="edgeStyle=orthogonalEdgeStyle;curved=0;rounded=1;sketch=0;orthogonalLoop=1;jettySize=auto;html=1;strokeColor=#457B9D;fillColor=#A8DADC;fontColor=#1D3557;entryX=0;entryY=0.5;entryDx=0;entryDy=0;" edge="1" parent="1" source="S3gwO5U7PfDeGXOOmlJb-23" target="S3gwO5U7PfDeGXOOmlJb-19">
          <mxGeometry relative="1" as="geometry">
            <mxPoint x="1080" y="-315" as="targetPoint" />
          </mxGeometry>
        </mxCell>
        <mxCell id="S3gwO5U7PfDeGXOOmlJb-22" style="edgeStyle=orthogonalEdgeStyle;curved=0;rounded=1;sketch=0;orthogonalLoop=1;jettySize=auto;html=1;strokeColor=#457B9D;fillColor=#A8DADC;fontColor=#1D3557;" edge="1" parent="1" target="S3gwO5U7PfDeGXOOmlJb-20">
          <mxGeometry relative="1" as="geometry">
            <mxPoint x="740" y="-410" as="sourcePoint" />
          </mxGeometry>
        </mxCell>
        <mxCell id="S3gwO5U7PfDeGXOOmlJb-11" value="prerouting&lt;br&gt;ISTIO_INBOUND" style="rhombus;whiteSpace=wrap;html=1;rounded=0;sketch=0;strokeColor=#457B9D;fillColor=#A8DADC;fontColor=#1D3557;" vertex="1" parent="1">
          <mxGeometry x="690" y="-530" width="120" height="110" as="geometry" />
        </mxCell>
        <mxCell id="S3gwO5U7PfDeGXOOmlJb-16" style="edgeStyle=orthogonalEdgeStyle;curved=0;rounded=1;sketch=0;orthogonalLoop=1;jettySize=auto;html=1;entryX=0;entryY=0.5;entryDx=0;entryDy=0;strokeColor=#457B9D;fillColor=#A8DADC;fontColor=#1D3557;" edge="1" parent="1" source="S3gwO5U7PfDeGXOOmlJb-13" target="S3gwO5U7PfDeGXOOmlJb-15">
          <mxGeometry relative="1" as="geometry" />
        </mxCell>
        <mxCell id="S3gwO5U7PfDeGXOOmlJb-13" value="local process" style="rounded=1;whiteSpace=wrap;html=1;sketch=0;strokeColor=#457B9D;fillColor=#A8DADC;fontColor=#1D3557;" vertex="1" parent="1">
          <mxGeometry x="890" y="-215" width="120" height="60" as="geometry" />
        </mxCell>
        <mxCell id="S3gwO5U7PfDeGXOOmlJb-26" style="edgeStyle=orthogonalEdgeStyle;curved=0;rounded=1;sketch=0;orthogonalLoop=1;jettySize=auto;html=1;entryX=0.5;entryY=1;entryDx=0;entryDy=0;strokeColor=#457B9D;fillColor=#A8DADC;fontColor=#1D3557;" edge="1" parent="1" source="S3gwO5U7PfDeGXOOmlJb-15" target="S3gwO5U7PfDeGXOOmlJb-19">
          <mxGeometry relative="1" as="geometry" />
        </mxCell>
        <mxCell id="S3gwO5U7PfDeGXOOmlJb-15" value="output" style="rhombus;whiteSpace=wrap;html=1;rounded=0;sketch=0;strokeColor=#457B9D;fillColor=#A8DADC;fontColor=#1D3557;" vertex="1" parent="1">
          <mxGeometry x="1130" y="-225" width="80" height="80" as="geometry" />
        </mxCell>
        <mxCell id="S3gwO5U7PfDeGXOOmlJb-19" value="postrouting" style="rhombus;whiteSpace=wrap;html=1;rounded=0;sketch=0;strokeColor=#457B9D;fillColor=#A8DADC;fontColor=#1D3557;" vertex="1" parent="1">
          <mxGeometry x="1130" y="-505" width="80" height="80" as="geometry" />
        </mxCell>
        <mxCell id="S3gwO5U7PfDeGXOOmlJb-27" style="edgeStyle=orthogonalEdgeStyle;curved=0;rounded=1;sketch=0;orthogonalLoop=1;jettySize=auto;html=1;strokeColor=#457B9D;fillColor=#A8DADC;fontColor=#1D3557;" edge="1" parent="1" source="S3gwO5U7PfDeGXOOmlJb-20" target="S3gwO5U7PfDeGXOOmlJb-13">
          <mxGeometry relative="1" as="geometry" />
        </mxCell>
        <mxCell id="S3gwO5U7PfDeGXOOmlJb-20" value="input" style="rhombus;whiteSpace=wrap;html=1;rounded=0;sketch=0;strokeColor=#457B9D;fillColor=#A8DADC;fontColor=#1D3557;" vertex="1" parent="1">
          <mxGeometry x="700" y="-225" width="80" height="80" as="geometry" />
        </mxCell>
        <mxCell id="S3gwO5U7PfDeGXOOmlJb-23" value="forward" style="rhombus;whiteSpace=wrap;html=1;rounded=0;sketch=0;strokeColor=#457B9D;fillColor=#A8DADC;fontColor=#1D3557;" vertex="1" parent="1">
          <mxGeometry x="910" y="-505" width="80" height="80" as="geometry" />
        </mxCell>
        <mxCell id="S3gwO5U7PfDeGXOOmlJb-24" style="edgeStyle=orthogonalEdgeStyle;curved=0;rounded=1;sketch=0;orthogonalLoop=1;jettySize=auto;html=1;strokeColor=#457B9D;fillColor=#A8DADC;fontColor=#1D3557;entryX=0;entryY=0.5;entryDx=0;entryDy=0;" edge="1" parent="1" target="S3gwO5U7PfDeGXOOmlJb-23">
          <mxGeometry relative="1" as="geometry">
            <mxPoint x="1130" y="-465" as="targetPoint" />
            <mxPoint x="800" y="-465" as="sourcePoint" />
          </mxGeometry>
        </mxCell>
        <mxCell id="S3gwO5U7PfDeGXOOmlJb-25" value="not local destination" style="edgeLabel;html=1;align=center;verticalAlign=middle;resizable=0;points=[];fontColor=#1D3557;" vertex="1" connectable="0" parent="S3gwO5U7PfDeGXOOmlJb-24">
          <mxGeometry x="-0.3834" y="-3" relative="1" as="geometry">
            <mxPoint x="23" y="-3" as="offset" />
          </mxGeometry>
        </mxCell>
        <mxCell id="S3gwO5U7PfDeGXOOmlJb-28" value="&lt;span style=&quot;color: rgb(83, 95, 97); font-family: helvetica; font-size: 15px; font-style: italic; font-weight: 400; letter-spacing: normal; text-align: left; text-indent: 0px; text-transform: none; word-spacing: 0px; background-color: rgb(248, 249, 250); display: inline; float: none;&quot;&gt;-A ISTIO_INBOUND -p tcp -m tcp --dport 80 -j ISTIO_IN_REDIRECT&lt;/span&gt;&lt;br style=&quot;color: rgb(83, 95, 97); font-family: helvetica; font-size: 15px; font-style: italic; font-weight: 400; letter-spacing: normal; text-align: left; text-indent: 0px; text-transform: none; word-spacing: 0px; background-color: rgb(248, 249, 250);&quot;&gt;" style="text;whiteSpace=wrap;html=1;fillColor=#f8cecc;strokeColor=#b85450;" vertex="1" parent="1">
          <mxGeometry x="100" y="190" width="480" height="30" as="geometry" />
        </mxCell>
        <mxCell id="S3gwO5U7PfDeGXOOmlJb-29" value="&lt;span style=&quot;color: rgb(83, 95, 97); font-family: helvetica; font-size: 15px; font-style: italic; font-weight: 400; letter-spacing: normal; text-align: left; text-indent: 0px; text-transform: none; word-spacing: 0px; background-color: rgb(248, 249, 250); display: inline; float: none;&quot;&gt;-A ISTIO_IN_REDIRECT -p tcp -j REDIRECT --to-ports 15001&lt;/span&gt;" style="text;whiteSpace=wrap;html=1;fillColor=#f8cecc;strokeColor=#b85450;" vertex="1" parent="1">
          <mxGeometry x="80" y="270" width="440" height="30" as="geometry" />
        </mxCell>
      </root>
    </mxGraphModel>
  </diagram>
</mxfile>
